<svg data-v-0dd9719b="" version="1.0" xmlns="http://www.w3.org/2000/svg" xmlns:xlink="http://www.w3.org/1999/xlink" width="100%" height="100%" viewBox="0 0 340.000000 250.000000" preserveAspectRatio="xMidYMid meet" color-interpolation-filters="sRGB" style="margin: auto;"> <rect data-v-0dd9719b="" x="0" y="0" width="100%" height="100%" fill="#fff" fill-opacity="1" class="background"></rect> <rect data-v-0dd9719b="" x="0" y="0" width="100%" height="100%" fill="url(#watermark)" fill-opacity="1" class="watermarklayer"></rect> <g data-v-0dd9719b="" fill="#0b56a6" class="icon-text-wrapper icon-svg-group iconsvg" transform="translate(48.890716567228125,95.13290977478027)"><g class="iconsvg-imagesvg" transform="translate(0,0)"><g><rect fill="#0b56a6" fill-opacity="0" stroke-width="2" x="0" y="0" width="60" height="59.734182886156596" class="image-rect"></rect> <svg x="0" y="0" width="60" height="59.734182886156596" filtersec="colorsb5828055699" class="image-svg-svg primary" style="overflow: visible;"><svg xmlns="http://www.w3.org/2000/svg" viewBox="-0.04386365786194801 0.0033783011604100466 15.421643257141113 15.353309631347656"><g><g fill-rule="evenodd"><path d="M4.89 14.82a7.61 7.61 0 0 0 4.19.41L8.57 15a8.55 8.55 0 0 1-5.33-6.65 4.5 4.5 0 0 1 2.11-4.5L5 3.89a7.67 7.67 0 0 0-5 3 7.66 7.66 0 0 0 4.82 7.95z" fill="#1db7e9"></path><path d="M4.9 14.79a7.61 7.61 0 0 0 2.89.53h.64l.57-.11-.14-.05-.25-.09a8.59 8.59 0 0 1-5.4-6.72 4.52 4.52 0 0 1 1.66-4.2L5.1 4l.13-.09-.23.01a7.65 7.65 0 0 0-4.93 3 7.59 7.59 0 0 0 .29 2.9 7.67 7.67 0 0 0 1.36 2.63 7.6 7.6 0 0 0 3.18 2.34zm1.41.47a7.79 7.79 0 0 1-1.44-.41A7.69 7.69 0 0 1 0 6.87a7.7 7.7 0 0 1 5-3H5.47l-.11.07-.22.06-.23.17a4.47 4.47 0 0 0-1.64 4.17A8.51 8.51 0 0 0 8.59 15l.25.09.25.09h.11-.12l-.64.09h-.65a7.64 7.64 0 0 1-1.48-.02z" fill="#ccc"></path><path d="M2.92 1.7A7.6 7.6 0 0 0 .47 5.12l.41-.35a8.54 8.54 0 0 1 8.46-1.26 4.5 4.5 0 0 1 2.84 4.08 7.69 7.69 0 0 0 0-6.09 7.66 7.66 0 0 0-9.29.2z" fill="#0b56a6"></path><path d="M2.93 1.72a7.71 7.71 0 0 0-1.06 1A7.53 7.53 0 0 0 1 4q-.16.28-.29.58T.54 5l.12-.1.21-.17a8.59 8.59 0 0 1 8.48-1.25 4.53 4.53 0 0 1 2.86 4 7.66 7.66 0 0 0 0-5.93 7.62 7.62 0 0 0-9.25.2zm-1.11 1A7.76 7.76 0 0 1 4.61.64 7.63 7.63 0 0 1 6.54.09a7.71 7.71 0 0 1 5.69 1.39 7.72 7.72 0 0 1 0 6.11l-.05.12v-.12a4.48 4.48 0 0 0-2.84-4.05A8.56 8.56 0 0 0 4.94 3 8.47 8.47 0 0 0 .9 4.8L.69 5l-.2.18-.09.04v-.11q.11-.31.24-.6T1 3.93a7.58 7.58 0 0 1 .82-1.22z" fill="#ccc"></path><path d="M15.26 6.55a7.58 7.58 0 0 0-1.74-3.83q.06.26.1.53a8.51 8.51 0 0 1-.49 4.39 8.6 8.6 0 0 1-2.64 3.57 4.53 4.53 0 0 1-2.14.93 4.52 4.52 0 0 1-2.82-.5l.2.26a7.67 7.67 0 0 0 5.06 2.8 7.66 7.66 0 0 0 4.47-8.15z" fill="#4dc8b1"></path><path d="M15.23 6.55a7.67 7.67 0 0 0-.36-1.44 7.53 7.53 0 0 0-.63-1.33q-.17-.28-.35-.54t-.32-.42V3.24a8.6 8.6 0 0 1 0 2.24 8.54 8.54 0 0 1-.54 2.17 8.62 8.62 0 0 1-2.65 3.58 4.55 4.55 0 0 1-2.15.93A4.49 4.49 0 0 1 6 11.9l-.26-.11-.14-.07.1.13a7.65 7.65 0 0 0 5 2.79 7.62 7.62 0 0 0 4.45-8.11zm-.3-1.46a7.77 7.77 0 0 1 .4 3.46 7.7 7.7 0 0 1-4.53 6.17 7.71 7.71 0 0 1-5.08-2.81l-.1-.13-.1-.13-.08-.11.12.06.25.13.26.11a4.47 4.47 0 0 0 4.41-.66 8.51 8.51 0 0 0 3.12-7.94v-.26l-.05-.26v-.11l.08.09q.21.25.4.51t.36.54a7.6 7.6 0 0 1 .54 1.34z" fill="#ccc"></path></g></g></svg></svg> <!----></g></g> <g transform="translate(67,5.808027267456055)"><g data-gra="path-name" fill-rule="" class="tp-name iconsvg-namesvg" transform="translate(0,0)"><g transform="scale(1)"><g><path d="M6.2-15.22L19.73-15.22 19.73-25.79 23.26-25.79 23.26 0 19.73 0 19.73-11.98 6.2-11.98 6.2 0 2.68 0 2.68-25.79 6.2-25.79 6.2-15.22ZM27.2-9.44L27.2-9.44Q27.77-19.03 35.94-19.45L35.94-19.45Q44.12-19.03 44.68-9.44L44.68-9.44Q44.12 0 35.94 0.28L35.94 0.28Q27.77 0 27.2-9.44ZM30.45-9.44L30.45-9.44Q30.87-2.4 35.94-2.26L35.94-2.26Q41.02-2.4 41.44-9.44L41.44-9.44Q41.02-16.49 35.94-16.63L35.94-16.63Q30.87-16.49 30.45-9.44ZM63.57-12.83L63.57-12.83 63.57 0 60.47 0 60.47-11.56Q60.75-16.77 56.38-16.49L56.38-16.49Q51.59-16.21 51.45-10.29L51.45-10.29 51.45 0 48.21 0 48.21-18.89 51.31-18.89 51.31-16.21Q53.56-19.45 57.09-19.45L57.09-19.45Q63.43-19.31 63.57-12.83ZM70.76-9.44L70.76-9.44Q70.9-2.26 75.83-2.11L75.83-2.11Q80.77-2.54 80.91-8.46L80.91-8.46Q81.05-16.49 75.83-16.49L75.83-16.49Q70.62-16.49 70.76-9.44ZM80.91-18.89L83.87-18.89 83.87-1.55Q84.15 7.61 75.27 7.61L75.27 7.61Q68.65 7.61 67.94 1.97L67.94 1.97 71.18 1.97Q71.75 5.07 75.41 5.07L75.41 5.07Q81.05 5.07 80.77-1.27L80.77-1.27 80.77-2.11 80.77-1.97Q79.08 0.28 75.69 0.28L75.69 0.28Q67.8 0 67.38-10.01L67.38-10.01Q67.8-19.03 75.27-19.45L75.27-19.45Q78.79-19.45 80.91-16.21L80.91-16.21 80.91-18.89ZM106.28-12.97L102.19-9.16 102.19 0 98.67 0 98.67-25.79 102.19-25.79 102.19-13.25 114.74-25.79 119.67-25.79 108.82-15.36 119.95 0 115.3 0 106.28-12.97ZM121.22-9.44L121.22-9.44Q121.79-19.03 129.96-19.45L129.96-19.45Q138.14-19.03 138.7-9.44L138.7-9.44Q138.14 0 129.96 0.28L129.96 0.28Q121.79 0 121.22-9.44ZM124.46-9.44L124.46-9.44Q124.89-2.4 129.96-2.26L129.96-2.26Q135.04-2.4 135.46-9.44L135.46-9.44Q135.04-16.49 129.96-16.63L129.96-16.63Q124.89-16.49 124.46-9.44ZM157.59-12.83L157.59-12.83 157.59 0 154.49 0 154.49-11.56Q154.77-16.77 150.4-16.49L150.4-16.49Q145.61-16.21 145.47-10.29L145.47-10.29 145.47 0 142.22 0 142.22-18.89 145.32-18.89 145.32-16.21Q147.58-19.45 151.1-19.45L151.1-19.45Q157.45-19.31 157.59-12.83ZM164.78-9.44L164.78-9.44Q164.92-2.26 169.85-2.11L169.85-2.11Q174.78-2.54 174.93-8.46L174.93-8.46Q175.07-16.49 169.85-16.49L169.85-16.49Q164.64-16.49 164.78-9.44ZM174.93-18.89L177.89-18.89 177.89-1.55Q178.17 7.61 169.29 7.61L169.29 7.61Q162.66 7.61 161.96 1.97L161.96 1.97 165.2 1.97Q165.76 5.07 169.43 5.07L169.43 5.07Q175.07 5.07 174.78-1.27L174.78-1.27 174.78-2.11 174.78-1.97Q173.09 0.28 169.71 0.28L169.71 0.28Q161.82 0 161.39-10.01L161.39-10.01Q161.82-19.03 169.29-19.45L169.29-19.45Q172.81-19.45 174.93-16.21L174.93-16.21 174.93-18.89Z" transform="translate(-2.680000066757202, 25.790000915527344)"></path></g> <!----> <!----> <!----> <!----> <!----> <!----> <!----></g></g> <g data-gra="path-slogan" fill-rule="" class="tp-slogan iconsvg-slogansvg" fill="#0b56a6" transform="translate(5,39.400001525878906)"><rect x="0" height="1" y="3.8600001335144043" width="58.914283752441406"></rect> <rect height="1" y="3.8600001335144043" width="58.914283752441406" x="106.30428314208984"></rect> <g transform="translate(61.914283752441406,0)"><g transform="scale(1)"><path d="M0.89-8.58L2.06-8.58L2.06-1.03L6.42-1.03L6.42 0L0.89 0L0.89-8.58ZM7.73-8.58L8.91-8.58L8.91 0L7.73 0L7.73-8.58ZM17.81-8.58L14.58-3.47L14.58 0L13.41 0L13.41-3.47L10.17-8.58L11.53-8.58L13.97-4.45L16.45-8.58L17.81-8.58ZM24.52-3.19L24.52-8.58L25.69-8.58L25.69-3.05Q25.55 0.05 22.17 0.14L22.17 0.14Q19.03 0.05 18.89-2.86L18.89-2.86L18.89-8.58L20.06-8.58L20.06-3.19Q20.11-0.84 22.22-0.80L22.22-0.80Q24.52-0.84 24.52-3.19L24.52-3.19ZM33.14 0L32.30-2.48L28.83-2.48L27.94 0L26.77 0L30-8.58L31.31-8.58L34.41 0L33.14 0ZM30.56-7.31L29.20-3.52L31.88-3.52L30.61-7.31L30.56-7.31ZM36.84-8.58L41.16-1.64L41.16-8.58L42.28-8.58L42.28 0L40.97 0L36.61-6.94L36.56-6.94L36.56 0L35.44 0L35.44-8.58L36.84-8.58Z" transform="translate(-0.890625, 8.578125)"></path></g></g></g></g></g><defs v-gra="od"></defs></svg>